<?xml version="1.0" encoding="UTF-8"?><svg id="Layer_1" xmlns="http://www.w3.org/2000/svg" viewBox="0 0 1789.23 933.08"><defs><style>.cls-1{fill:#0080ab;}.cls-2{fill:#595959;}</style></defs><g id="Layer_1-2"><g><path class="cls-1" d="M1752.78,362.3c-11.7,2.9-15.7,1.3-49,3.3-28.3,1.7-48.6,2.4-62.5,3-44,1.8-58.8,3.1-102.7,5.3-58.3,3-56.5,2-167.6,6.5-57.7,2.3-104.8,4.4-138.3,5.9-41.2,1.9-42.2,2-94.8,4.4-42.1,2-113.4,5.1-254.3,11.2-11.8,.5-25.9,1.1-45.1,1.9-48,2-86.8,3.2-111.9,4-5.1,18.1-7.7,33.6-9.2,44.9-4.4,33.9-7.7,59.8,1.5,77.5,1.1,2.2,3,7.9,4.4,15.5,1.3,7.3-2.4,14.3-7.1,20.3-6.3,8.2-14,11.8-18.4,13.6-2,.8-25.5,10.2-43.8-2.2-3.1-2.1-5.3-4.4-6.8-6,0,0-2.8-3.5-4.3-8.2-5.7-17.4,2.5-57.1,2.5-57.1,4.6-22.4,8-37.7,9-42.2,3.3-15,6.1-26.9,8-35,1.6-6.8,3-12.6,4.1-17.1l-48,3c-32.3,4.3-64.7,8.7-97,13-10.3,16.4-26.1,41.3-46.2,71.4-21.7,32.7-36.6,53.6-49.7,72.3-35,50.2-33.2,51.1-84,127.4-57.2,85.8-98.3,142.9-113.6,168.4-4.6,7.7-9.8,15.4-20.1,30.7-3.1,4.6-6.3,9.3-11.3,14.9-7.5,8.6-12.3,14-20,17-9,3.5-22.6,4.1-26-1.8-1-1.7-1.6-4.9,10.6-24.9,9-14.8,13.8-22.1,18.7-28.3,5.8-7.5,4-5.8,34.5-53.5,30.3-47.4,27.2-41.3,43.3-67,15.8-25.2,13.5-22.6,48-78.7,1.3-2.1,14.3-23.3,31.6-50.7,10.1-16,17.8-27.9,28-42.8,6.1-8.8,5.5-7.8,15-21.3,18.5-26.3,21.1-31.3,38.3-55.6,8.9-12.6,18-25.1,18.8-26.2,9.7-13.3,15-20.3,22.8-31.8,5.1-7.5,9-13.6,11.5-17.5-50.8,5.1-91.1,8.7-119,11-17.2,1.5-24,2.1-38.9,3.3-26.8,2.2-29.6,3.3-96.9,10.7-31.7,3.5-45.2,4.9-67.8,8-13.5,1.9-27.5,3.9-27.5,3.9-23.8,3.5-28.1,4.2-41.5,6-.6,.1-11.1,1.2-31.9,3.6-.1,0,0,0-19.4,1.4-7.5,.5-12.2,.9-18-1-2.8-.9-9.3-3-9.9-7.1-.2-1.1-.1-3.8,4.9-7.9,12.4-10.1,31.9-10.5,51.8-13,10.7-1.3,.7-.7,31-5.6,23.2-3.8,38.2-5.6,76.1-10.4,62.5-7.9,72.6-9.3,86.7-11.6,7.8-1.2,13.4-2.2,23.5-3.7,12.5-1.8,24.1-3.3,55.1-6.7,22.9-2.5,22.7-2.4,61.1-6.6,23.3-2.5,23.7-2.6,32.4-3.5,25.2-2.6,29.2-2.7,44.5-4.5,8-.9,19.6-2.4,33.8-4.5,6.8-10.1,12.9-18.5,17.5-24.7,4.8-6.5,6.6-8.6,22.9-29.4,6.1-7.8,12.2-15.5,18.2-23.3,8.1-10.4,9.9-12.8,40.7-52.2,18.4-23.7,27.8-35.7,35-44.3,3.6-4.3,8.2-9.6,15.4-18.4,10.7-13,18.2-22.6,21-26.2,13.3-16.9,21.2-25.1,41.9-49,32.4-37.4,48.6-56.2,54.3-64.6,0,0,11.8-18.4,46.8-51.7,1-1,3.2-3,6.7-4.5,9.9-4.2,20,.5,21,1,1.8,.9,6.2,3.1,9.5,7.9,3.5,5.1,4.1,10.6,4.1,15.3,0,20.9-12.3,46.5-16.5,54.9-8.3,17-13.3,26.7-16.4,32.9,0,0-23.6,48.8-44.6,115.8-2.8,9.1-5.5,18.3-11,34.8-8.4,25.3-11.5,31.7-17.9,53.2-3.2,10.8-6.9,23.9-7.7,26.7-2.5,9-4.5,16.7-6,22.4,18.1-.6,47.2-1.6,83-2.9,44.9-1.6,98.1-3.5,158.5-6,51.6-2.1,54.1-2.4,105.3-4.6,53.2-2.3,129.5-5,279.9-10.4,72.1-2.6,108.2-3.9,114.1-4.1,99-3.6,179-6.8,231.3-8.9,32.8-1,57.5-1.6,70-2,2.6-.1,8.4-.1,10,3,2.6,5-7.6,14.7-9,16-5.8,5.9-13.6,10.7-27,14Zm-1075.2,11.6c29-79.7,58-159.3,87-239-82.6,101.6-113.6,139.2-122,148.9-.6,.7-5.3,6.1-11.6,13.5-5.1,6-11.3,13.3-18.5,21.8-23.5,28.1-42,51.4-53.9,66.8,39.7-4,79.3-8,119-12Z"/><path class="cls-2" d="M1492.28,221.2c-7.2,1.3-16.8,3.5-27.7,7.7-15.6,6-25.6,12.8-39,22,0,0-8.6,5.9-18.5,14.8-4.5,4-17.2,15.3-26.6,32.3-2.3,4.2-3.9,7.8-2.6,11,1.5,3.4,6.1,5.3,15.5,6.2,17.6,1.5,31.8-2.5,54.2-9.2,4.4-1.3,11.6-3.6,20.6-7.7,2.7-1.2,5.5-2.6,8.4-4.3,9.9-5.5,17.6-11.3,23-16-5.4-.4-12.6-.6-21,0-10.1,.7-18.8,1.3-29,5-12.8,4.6-17.6,10.3-21,8-3.2-2.2-2.8-10.3,.2-16,4.4-8.2,14-10.9,41-15,52.5-7.9,59.4-4.1,60.9-.6,.9,2.1,2.2,9.6-1.3,16h0c-13.5,21.9-55.3,39.4-55.3,39.4-16.3,6.8-28.5,12-46.7,16.1-40.7,9.1-59.6,1.3-65.2-2.1-1.9-1.2-6.5-4.1-8.1-9.4-1-3.5-.3-6.6,.7-9.9,4.2-13.9,9.9-21.5,9.9-21.5,7.1-10.6,17.4-23.9,32-37,7-6.3,16.6-13.9,35-25,16.3-9.8,83.9-50.3,98-35,3,3.3,3,8.4,3,11,0,9.5-6.6,16.1-15.8,25.2-14,13.9-21.5,13.7-23.2,13.6-6.1-.3-7.8-3.7-4.8-9,1.5-3.1,2.6-6.4,3.4-10.6Z"/><path class="cls-2" d="M859.58,265.7c27.4-2.4,34.4-.8,38,4.3,3.7,5.3,2.5,12.5,2,15.2-5.3,31.3-57.2,47-66.9,49.9q-.4,.1-4,1.1c-2.5,.7-15.8,4.4-23.3,6.3-12.2,3-18.3,4.6-22.8,4-1.9-.3-17.5-2.6-21-13.6-.1-.4-2.3-8.5,2-14.1,5.7-7.5,16.1-.5,43-2.2,10.9-.7,18.4-2.4,22-3.2,4-1,9-2.8,19-6.5,14.5-5.3,18.5-7.4,22-11.9,2.2-2.8,5-6.5,4-8.7-3.7-7.9-55.7,8.5-78.9,3.5-7.8-1.7-10.1-5.2-10.9-6.9-2-3.9-1-8.3-.4-11,.4-1.7,1.5-6.4,7.8-14.1,4.6-5.7,9-9.3,10.4-10.5,15.2-12.4,23.8-17.9,23.8-17.9,12.5-8,22.6-14.5,39-22.9,7-3.6,30.6-15.5,52-15.8,2.8,0,7.7,.1,10.9,3.7,5.2,5.8,2.2,16.7,1.4,19.7-.6,2-4.3,15.7-14,18-.6,.1-6.5,1.4-10-2.2-2.8-2.9-1.4-6.3-3-8.7-1.9-2.8-8.2-4.7-39,8.7-16,7-29.7,14.1-41,28.2-3.2,4-4.8,6.7-4,8.7,1.8,4.6,15.3,1.3,41.9-1.1Z"/><path class="cls-2" d="M1319.28,295.1c4.3,1.2,11.5-20.2,27.3-48.8,0,0,29-52.7,53.5-56.7,1.4-.2,4.9-.8,6.3,1,2.1,2.6-1.4,9-8.7,19.7-5.1,7.4-12.6,17.5-22.8,29.3-14.4,23.4-24.9,42.9-31.9,56.6-11.8,23-17.9,37.7-29.3,38.7-10.1,.9-18.4-9.8-19.2-10.8-4.6-6.1-5.9-13.3-4.8-34.2,1.4-28.5,5.3-44.5,2.3-45.6-1-.4-2.3,1.1-12.1,14.3-13.2,17.9-10.9,14.7-13,17.7-9.8,13.7-14.7,20.6-15.8,22.4-11.4,17.5-12.6,23.3-21.4,29.2-4.3,3-13.1,7.7-16,5-3.7-3.4,3.8-17.1,11-30,7.4-13.3,13.5-21.9,25.9-39.5,3.6-5.1,13.3-18.8,27.3-37.9,2.4-3.3,12.5-16.8,28.7-30.6,7.9-6.7,12.6-9.5,15-8,2.5,1.5,1.5,6.8,0,17-2,13.3-3.3,26.7-5,40-2,16-2.1,22-2,27,.1,2.4,.6,23,4.7,24.2Z"/><path class="cls-2" d="M953.38,264.7c3.3-2.2,8.5-5.6,14.8-9.7,8.9-5.8,13-8.4,20.2-13,9.1-5.9,15.7-10.3,21.6-14.2,15.8-10.5,31.9-20.4,47.7-30.9,9.8-6.6,19.1-13,23-10,2.1,1.6,2,5.5,2,6,0,1.4-.5,4.3-6.6,10.6-3.9,4-7.4,6.6-7.9,7-7.8,5.7-11.7,8.6-16.5,11.5-10,6-8.2,6.1-40.8,28.5-12.3,8.5-18.7,12.8-27.8,18.5-10.4,6.5-19.2,11.6-25.4,15.1,.3,.6,.9,1.5,1.6,2.5,5.5,7.6,12.5,10.1,29.2,16.8,3.5,1.4,13,5.3,23.3,12.5,2.8,2,5,3.7,5,6,.1,5-10.2,9.6-18,11-5.5,1-10.1,.5-13,0-13.7-2.2-21-8.6-38.5-18.8-4.6-2.7-11.7-6.7-20.6-11.1-9.9,16.2-18.5,25.8-24.1,31.3-3,2.9-7,6.5-10.2,5.4-4-1.4-4.6-9-4.6-9.7-.7-9.6,6.1-14.5,20.2-35.3,.9-1.3-.1,.1,9.6-14.8,9.2-14.1,11.6-17.7,13.6-20.8,3.8-5.6,6.6-9.7,10.1-14.8,8.7-12.6,9.3-13.2,14.4-20.8,7.6-11.3,6.6-10.6,9.1-13.5,8.2-9.7,15.8-13.5,21.4-15.2,3.8-1.2,7.3-2.3,8.6-.8,1.8,2-1.3,7.2-12,24-7.3,11.4-13.3,20.6-18,28-5.2,7.9-9.1,14.5-11.4,18.7Z"/><path class="cls-2" d="M1022.38,498.4c10.4,5.3,17.2,11.4,21.6,16,9.3,9.9,16,22.5,13.7,24.7-.3,.3-1.2,.5-3,.8-1.4,.3-3,.6-4.8,.3-.1,0-1.7-.3-3.2-1.1-4.9-2.5-23.9-17.9-33.9-24.6-7.6-5-11.4-7.6-15.2-6.7-6.6,1.6-12.1,10.9-17.9,20.7-2.3,3.8-4,6.5-7.6,8.3-4.1,2-10.7,2.7-12.9-.2-3.2-4.1,5-12.7,26-46.8,3.5-5.6,8.8-14.5,16.9-26.8,4.2-6.4,6.2-9.6,8.8-13,9.2-12.2,14.7-19.7,24.2-25.4,4-2.4,7.2-3.5,13.6-5.8,4.4-1.6,19.7-6.7,41.9-7.6,16.8-.6,22.3,1.8,25.9,5.1,1.7,1.5,3.7,3.4,4.6,6.4,3.6,11.9-18.3,30.9-36.5,41-.8,.4-8.2,4-23,11-11.7,5.6-16.8,8-23.6,12.2-6.9,4.5-12.1,8.6-15.6,11.5Zm83.6-70.8c-2.1-6.6-28.1-4.3-44-.4-11.7,2.8-17.2,6.3-20.1,8.4-2.2,1.6-6.1,4.6-15.3,18.3-10.8,16.1-16.1,24.1-14.1,26.3,.9,1,3,1,18.7-5.7,11.8-5,20.4-9.2,25.3-11.6,11.6-5.7,18.7-9.2,25.5-13.4,9.1-5.7,25.9-16.2,24-21.9Z"/><path class="cls-2" d="M1062.48,308.7c33.5-4,53.8-8.8,66.8-12.8,5.3-1.7,19.2-6.2,23.3-1,1.6,2.1,1.2,4.9,1,6-1.7,11-20,16.6-29.3,19.5-6.4,2-7.9,1.9-25.6,5.1-23,4.2-28.3,5.9-40.2,6.3-10.9,.4-23.2,.8-25.8-5-1.4-3.1,.5-6.7,2.4-10.4,11.3-21.6,24.6-40.3,30-48.2,2.7-4,5.3-8,10.5-16.2,4.9-7.7,25.2-39.5,42.4-56.2,1.5-1.5,6.7-5.9,14.2-6.7,2.8-.3,5.9-.7,7.2,.9,2.9,3.5-4.6,13.9-15,29,0,0-12.8,18.6-25,37-12.5,18.7-14.3,23-24,36-5.1,7.1-9.8,12.9-12.9,16.7Z"/><path class="cls-2" d="M886.68,540.8c-10.6-2.4-23.5-10.2-26.3-21-2.7-10.9,5.4-21.6,14.8-34.3,.7-1,3.6-4.8,9.4-11.1,7.5-8.1,19.4-20.7,37.6-32.1,10.5-6.6,20.1-12.5,34.3-15.6,9-2,29.9-6.6,36.9,2.4,9,11.6-8.9,38.8-15.9,49.5-5.7,8.6-48.4,71.9-90.8,62.2Zm34.2-22.4c8.1-4.5,12.9-9.3,21-17.3,5.2-5.1,11.1-12.3,22.9-26.7,3.7-4.5,6.5-8.6,9.7-14.2,4.9-8.7,8.4-15.4,6.4-18.8-3.7-6.6-28.4-3-46.8,7.7-9.7,5.6-19,13.9-23.6,18.3-5.9,5.5-12.1,11.5-20,20.7-12.1,14.2-18.1,21.4-16.2,27.7,1.8,6.1,9.7,8.8,12.6,9.8,13.4,4.4,26.8-3.1,34-7.2Z"/><path class="cls-2" d="M849.08,492.7c-.6,.3-1.2,.7-1.8,.9,0,0-.8,.4-1.7,.8-9.4,3.9-27.5,5.2-27.5,5.2,0,0-28.6,2-37.6,9.3-.6,.5-1.1,.9-1.1,.9-.6,.6-1.7,1.6-2.9,3.1-9,11-11,15-11,15-3,5.9-3.4,10.2-8.4,14.5-.3,.3-.5,.5-.6,.5-5.3,4.1-13.8,6.8-16.3,4.2-2.7-2.9,2.8-10.8,13.3-29.2,19.4-34,22.4-41.4,35-59,12.2-17.1,16.5-20.2,18.8-21.7,10.3-6.6,17-5.3,41.6-8.8,31.9-4.5,45-10.3,47.5-5.6,2,3.6-3.3,11.2-9,15-4.1,2.7-7.4,3-21.1,4.8-9.2,1.2-13.8,1.8-17.8,2.4-9.7,1.5-21.4,3.7-31,8.7-1.6,.8-2.9,1.5-4,2.3-3.9,2.7-6.3,5.5-11,11-5.3,6.3-14.8,17-12.3,20.6,1.2,1.8,4.8,.8,17.1-1.7,23.7-4.9,18.5-3,31-6,16.9-4.1,24.6-7.3,26-5,1,1.6-1.6,5-5,9-4.3,5.4-9.1,8.2-10.2,8.8Z"/><path class="cls-2" d="M1266.38,437c-18.9,4.4-25.5,7.6-33.9,4.2-5-2.1-11.4-6.9-10.7-10.8,.2-1.3,1.5-4.3,40.1-13.7,.3-.1,2.9-.7,7-1.7,12.9-3.2,22.1-5.4,23.5-5.8,16.4-4,39.2-8,54.1-10.4,43.1-6.8,47.8-5.8,48.8-3.4,1.5,3.5-4.4,9.2-6.7,11.4-10,9.6-21.2,10.3-49.9,16.2-5.3,1.1-12.3,2.6-20.6,4.5-2.1,3.2-5.3,8-9.2,13.7-10.4,15.2-23.2,33.1-39.9,54.8-32.7,42.2-44.3,52.2-49.1,49.8-1.3-.7-4.3-3.4-5.2-7.2-.6-2.7,.1-5,.5-6.2,3.4-10,13.5-21.5,20.1-29.6q.1-.1,.1-.2c4.5-5.1,7.1-9.2,7.8-10.1,2.7-3.9,19.7-27,44.1-59.8-5.1,1-12.3,2.3-20.9,4.3Z"/><path class="cls-2" d="M1165.58,337.9c-4.6-1-6.1-10.2-6.2-10.7-1.9-12.2,6.9-20.2,25.2-45.3,5.9-8.1,12.2-17.4,24.7-36,9.2-13.6,10.9-16.5,18-26.7,22.8-32.7,28.6-36.4,32.3-35.3,3.2,1,4.5,5.4,5,7,3.4,11.6-5.6,22.8-20,42-4.5,6-22.3,30-37.1,51.6-6.8,9.9-14.2,19.4-20.9,29.4-10.5,15.6-16,25.1-21,24Z"/><path class="cls-2" d="M1130.48,544.2c-4.6-.8-6.1-9.7-6.2-10.7-1.8-11.1,4.8-19.7,20.3-40.6,15.4-20.7,23.1-31.1,29.6-40.7,8.7-12.8,9.5-15,18-26.7,13.5-18.7,23.7-32.7,29.4-30.6,3.9,1.5,4,10,4,12,.1,13.3-8.2,22.8-16.1,32.3,0,0-20.1,23.8-35.9,47.7-7.3,11.1-14.8,22.1-22.1,33.3-10.2,15.8-15.8,24.8-21,24Z"/></g></g></svg>